<svg width="496" height="131" viewBox="0 0 496 131" fill="none" xmlns="http://www.w3.org/2000/svg">
<path d="M32.2661 0.786682H8.47614L0.973145 128.887H16.5281L17.9921 103.267H22.2011L23.6651 128.704H40.1351L32.2661 0.786682ZM18.7241 88.2607L19.0901 50.7457H20.9201L21.4691 88.2607H18.7241Z" fill="#121212"/>
<path d="M42.0767 128.887H59.6447V54.7717C59.6447 54.2227 60.1937 53.6737 60.7427 53.6737H60.9257C61.4747 53.6737 62.0237 54.2227 62.0237 54.7717V63.9217H79.7747V52.2097C79.7747 40.4977 74.8337 37.3867 69.7097 37.3867C66.0497 37.3867 60.7427 40.3147 59.6447 42.8767V37.3867H42.0767V128.887Z" fill="#121212"/>
<path d="M80.8355 50.9287H83.5805V128.887H101.148V50.9287H103.893V37.3867H101.148V0.786682H83.5805V37.3867H80.8355V50.9287Z" fill="#121212"/>
<path d="M143.574 37.3867H126.006V111.502C126.006 112.051 125.457 112.6 124.908 112.6H124.725C124.176 112.6 123.627 112.051 123.627 111.502V37.3867H105.876V114.064C105.876 125.776 109.902 129.436 115.941 129.436C121.248 129.436 124.908 125.593 126.006 123.031V128.887H143.574V37.3867Z" fill="#121212"/>
<path d="M146.265 128.887H163.833V54.7717C163.833 54.2227 164.382 53.6737 164.931 53.6737H165.114C165.663 53.6737 166.212 54.2227 166.212 54.7717V63.9217H183.963V52.2097C183.963 40.4977 179.022 37.3867 173.898 37.3867C170.238 37.3867 164.931 40.3147 163.833 42.8767V37.3867H146.265V128.887Z" fill="#121212"/>
<path d="M255.795 0.786682H226.149V128.887H243.9V63.9217H253.05V47.6347H243.9V16.8907H255.795V0.786682Z" fill="#121212"/>
<path d="M278.324 36.1057H270.638C262.403 36.1057 255.815 42.8767 255.815 51.1117V115.162C255.815 123.58 262.403 130.351 270.638 130.351H278.324C286.559 130.351 293.33 123.58 293.33 115.162V87.1627H275.762V111.502C275.762 112.234 275.396 112.6 274.664 112.6H274.298C273.566 112.6 273.2 112.234 273.2 111.502V84.0517H293.33V51.1117C293.33 42.8767 286.559 36.1057 278.324 36.1057ZM273.2 74.3527V54.7717C273.2 54.0397 273.566 53.6737 274.298 53.6737H274.664C275.396 53.6737 275.762 54.2227 275.762 54.7717V74.3527H273.2Z" fill="#121212"/>
<path d="M334.085 82.5877V0.786682H316.517V43.4257C315.419 40.8637 310.112 37.3867 306.452 37.3867C301.328 37.3867 296.387 40.4977 296.387 52.2097V82.5877L296.204 115.528C296.204 127.24 301.145 129.619 306.269 129.619C309.929 129.619 313.223 127.972 316.334 124.312V128.887H333.902L334.085 82.5877ZM316.517 82.5877L316.334 112.966C316.334 113.515 315.785 114.064 315.236 114.064H315.053C314.504 114.064 313.955 113.515 313.955 112.966L314.138 82.5877V54.7717C314.138 54.2227 314.687 53.6737 315.236 53.6737H315.419C315.968 53.6737 316.517 54.2227 316.517 54.7717V82.5877Z" fill="#121212"/>
<path d="M336.95 115.162C336.95 123.58 343.538 130.351 351.773 130.351H359.459C367.694 130.351 374.465 123.58 374.465 115.162V51.1117C374.465 42.8767 367.694 36.1057 359.459 36.1057H351.773C343.538 36.1057 336.95 42.8767 336.95 51.1117V115.162ZM354.335 111.502V54.7717C354.335 54.0397 354.701 53.6737 355.433 53.6737H355.799C356.531 53.6737 356.897 54.2227 356.897 54.7717V111.502C356.897 112.234 356.531 112.6 355.799 112.6H355.433C354.701 112.6 354.335 112.234 354.335 111.502Z" fill="#121212"/>
<path d="M377.338 128.887H394.906V54.7717C394.906 54.2227 395.455 53.6737 396.004 53.6737H396.187C396.736 53.6737 397.285 54.2227 397.285 54.7717V63.9217H415.036V52.2097C415.036 40.4977 410.095 37.3867 404.971 37.3867C401.311 37.3867 396.004 40.3147 394.906 42.8767V37.3867H377.338V128.887Z" fill="#121212"/>
<path d="M417.906 115.162C417.906 123.58 424.494 130.351 432.729 130.351H440.415C448.65 130.351 455.421 123.58 455.421 115.162V51.1117C455.421 42.8767 448.65 36.1057 440.415 36.1057H432.729C424.494 36.1057 417.906 42.8767 417.906 51.1117V115.162ZM435.291 111.502V54.7717C435.291 54.0397 435.657 53.6737 436.389 53.6737H436.755C437.487 53.6737 437.853 54.2227 437.853 54.7717V111.502C437.853 112.234 437.487 112.6 436.755 112.6H436.389C435.657 112.6 435.291 112.234 435.291 111.502Z" fill="#121212"/>
<path d="M495.512 37.3867H479.042L475.931 93.2017L471.905 37.3867H455.435L466.964 128.887H484.898L495.512 37.3867Z" fill="#121212"/>
</svg>
