<svg width="337" height="336" viewBox="0 0 337 336" fill="none" xmlns="http://www.w3.org/2000/svg">
<mask id="mask0" mask-type="alpha" maskUnits="userSpaceOnUse" x="0" y="0" width="337" height="336">
<rect x="0.909668" y="0.75" width="334.594" height="334.75" fill="white" stroke="#121212"/>
</mask>
<g mask="url(#mask0)">
<path d="M88.8908 337.87C107.546 337.87 122.511 332.54 132.761 322.495C143.216 312.245 150.186 295.845 150.391 281.29H132.146C130.301 302.815 117.181 321.675 89.5058 321.675C58.9608 321.675 39.0758 297.485 39.0758 261.61C39.0758 227.17 57.1158 201.135 89.3008 201.135C112.466 201.135 127.021 213.64 130.506 231.885H148.546C144.651 204.825 123.946 185.145 89.7108 185.145C46.0458 185.145 20.2158 218.56 20.2158 261.61C20.2158 306.095 47.2758 337.87 88.8908 337.87Z" fill="black"/>
<path d="M213.938 337.87C245.713 337.87 264.983 312.86 264.983 282.11C264.983 251.36 245.713 226.35 213.938 226.35C182.368 226.35 162.688 251.36 162.688 282.11C162.688 312.86 182.368 337.87 213.938 337.87ZM213.938 323.93C191.388 323.93 179.703 305.48 179.703 282.11C179.703 258.74 191.388 240.085 213.938 240.085C236.488 240.085 247.968 258.74 247.968 282.11C247.968 305.48 236.488 323.93 213.938 323.93Z" fill="black"/>
<path d="M298.148 229.015H281.543V335H298.148V269.81C298.148 252.385 310.448 240.495 327.258 240.495C342.223 240.495 351.243 248.285 351.243 262.02V335H367.848V260.585C367.848 238.65 354.318 226.555 332.178 226.555C316.803 226.555 306.143 232.91 298.558 242.955H298.148V229.015Z" fill="black"/>
<path d="M381.081 242.545H396.456V315.115C396.456 330.08 406.296 335.615 419.826 335.615C424.746 335.615 429.256 335 433.151 334.18V319.83H432.536C430.691 320.445 427.001 321.265 423.721 321.265C416.956 321.265 413.061 318.805 413.061 311.425V242.545H433.561V229.015H413.061V195.6H396.456V229.015H381.081V242.545Z" fill="black"/>
<path d="M533.938 336.025C538.243 336.025 540.908 335.205 542.958 334.385V322.29H542.343C533.118 324.34 531.068 319.625 531.068 311.015V260.585C531.068 235.37 514.463 226.965 491.913 226.965C463.828 226.965 450.298 242.34 449.683 262.84H465.673C466.288 246.85 474.898 239.47 492.118 239.47C507.288 239.47 515.898 246.235 515.898 258.125C515.898 269.605 505.443 271.04 490.478 273.295C464.033 277.395 444.353 282.52 444.353 307.53C444.353 327.62 460.138 337.05 480.228 337.05C498.268 337.05 509.133 328.44 515.488 320.24H515.693C517.333 331.105 523.073 336.025 533.938 336.025ZM483.918 324.34C473.053 324.34 461.983 321.265 461.983 307.12C461.983 291.54 475.308 288.67 491.913 285.595C500.933 283.955 510.568 281.29 516.103 277.805V295.845C516.103 308.145 506.058 324.34 483.918 324.34Z" fill="black"/>
<path d="M600.515 337.87C626.96 337.87 643.565 323.11 645.82 297.69H629.42C627.985 314.09 617.735 323.93 600.515 323.93C577.965 323.93 566.28 305.48 566.28 282.11C566.28 258.74 577.965 240.085 600.515 240.085C616.505 240.085 626.55 248.9 629.01 263.25H645.82C642.13 240.7 625.525 226.35 600.515 226.35C568.945 226.35 549.265 251.36 549.265 282.11C549.265 312.86 568.945 337.87 600.515 337.87Z" fill="black"/>
<path d="M654.748 242.545H670.123V315.115C670.123 330.08 679.963 335.615 693.493 335.615C698.413 335.615 702.923 335 706.818 334.18V319.83H706.203C704.358 320.445 700.668 321.265 697.388 321.265C690.623 321.265 686.728 318.805 686.728 311.425V242.545H707.228V229.015H686.728V195.6H670.123V229.015H654.748V242.545Z" fill="black"/>
</g>
</svg>
