<svg width="337" height="336" viewBox="0 0 337 336" fill="none" xmlns="http://www.w3.org/2000/svg">
<mask id="mask0" mask-type="alpha" maskUnits="userSpaceOnUse" x="0" y="0" width="337" height="336">
<rect x="1.29395" y="0.746094" width="334.754" height="334.754" fill="white" stroke="#121212"/>
</mask>
<g mask="url(#mask0)">
<path d="M-603.109 337.87C-584.454 337.87 -569.489 332.54 -559.239 322.495C-548.784 312.245 -541.814 295.845 -541.609 281.29H-559.854C-561.699 302.815 -574.819 321.675 -602.494 321.675C-633.039 321.675 -652.924 297.485 -652.924 261.61C-652.924 227.17 -634.884 201.135 -602.699 201.135C-579.534 201.135 -564.979 213.64 -561.494 231.885H-543.454C-547.349 204.825 -568.054 185.145 -602.289 185.145C-645.954 185.145 -671.784 218.56 -671.784 261.61C-671.784 306.095 -644.724 337.87 -603.109 337.87Z" fill="black"/>
<path d="M-478.062 337.87C-446.287 337.87 -427.017 312.86 -427.017 282.11C-427.017 251.36 -446.287 226.35 -478.062 226.35C-509.632 226.35 -529.312 251.36 -529.312 282.11C-529.312 312.86 -509.632 337.87 -478.062 337.87ZM-478.062 323.93C-500.612 323.93 -512.297 305.48 -512.297 282.11C-512.297 258.74 -500.612 240.085 -478.062 240.085C-455.512 240.085 -444.032 258.74 -444.032 282.11C-444.032 305.48 -455.512 323.93 -478.062 323.93Z" fill="black"/>
<path d="M-393.852 229.015H-410.457V335H-393.852V269.81C-393.852 252.385 -381.552 240.495 -364.742 240.495C-349.777 240.495 -340.757 248.285 -340.757 262.02V335H-324.152V260.585C-324.152 238.65 -337.682 226.555 -359.822 226.555C-375.197 226.555 -385.857 232.91 -393.442 242.955H-393.852V229.015Z" fill="black"/>
<path d="M-310.919 242.545H-295.544V315.115C-295.544 330.08 -285.704 335.615 -272.174 335.615C-267.254 335.615 -262.744 335 -258.849 334.18V319.83H-259.464C-261.309 320.445 -264.999 321.265 -268.279 321.265C-275.044 321.265 -278.939 318.805 -278.939 311.425V242.545H-258.439V229.015H-278.939V195.6H-295.544V229.015H-310.919V242.545Z" fill="black"/>
<path d="M-158.062 336.025C-153.757 336.025 -151.092 335.205 -149.042 334.385V322.29H-149.657C-158.882 324.34 -160.932 319.625 -160.932 311.015V260.585C-160.932 235.37 -177.537 226.965 -200.087 226.965C-228.172 226.965 -241.702 242.34 -242.317 262.84H-226.327C-225.712 246.85 -217.102 239.47 -199.882 239.47C-184.712 239.47 -176.102 246.235 -176.102 258.125C-176.102 269.605 -186.557 271.04 -201.522 273.295C-227.967 277.395 -247.647 282.52 -247.647 307.53C-247.647 327.62 -231.862 337.05 -211.772 337.05C-193.732 337.05 -182.867 328.44 -176.512 320.24H-176.307C-174.667 331.105 -168.927 336.025 -158.062 336.025ZM-208.082 324.34C-218.947 324.34 -230.017 321.265 -230.017 307.12C-230.017 291.54 -216.692 288.67 -200.087 285.595C-191.067 283.955 -181.432 281.29 -175.897 277.805V295.845C-175.897 308.145 -185.942 324.34 -208.082 324.34Z" fill="black"/>
<path d="M-91.4852 337.87C-65.0402 337.87 -48.4352 323.11 -46.1802 297.69H-62.5803C-64.0153 314.09 -74.2652 323.93 -91.4852 323.93C-114.035 323.93 -125.72 305.48 -125.72 282.11C-125.72 258.74 -114.035 240.085 -91.4852 240.085C-75.4952 240.085 -65.4502 248.9 -62.9902 263.25H-46.1802C-49.8702 240.7 -66.4752 226.35 -91.4852 226.35C-123.055 226.35 -142.735 251.36 -142.735 282.11C-142.735 312.86 -123.055 337.87 -91.4852 337.87Z" fill="black"/>
<path d="M-37.2515 242.545H-21.8765V315.115C-21.8765 330.08 -12.0365 335.615 1.49347 335.615C6.41347 335.615 10.9235 335 14.8185 334.18V319.83H14.2035C12.3585 320.445 8.66849 321.265 5.38849 321.265C-1.37651 321.265 -5.27155 318.805 -5.27155 311.425V242.545H15.2285V229.015H-5.27155V195.6H-21.8765V229.015H-37.2515V242.545Z" fill="black"/>
</g>
</svg>
