<svg width="344" height="338" viewBox="0 0 344 338" fill="none" xmlns="http://www.w3.org/2000/svg">
<mask id="mask0" mask-type="alpha" maskUnits="userSpaceOnUse" x="4" y="0" width="336" height="336">
<rect x="4.90771" y="0.75" width="334.59" height="334.75" fill="white" stroke="#121212"/>
</mask>
<g mask="url(#mask0)">
<path d="M-252.984 337.87C-234.338 337.87 -219.38 332.54 -209.135 322.495C-198.685 312.245 -191.718 295.845 -191.514 281.29H-209.75C-211.594 302.816 -224.707 321.676 -252.369 321.676C-282.899 321.676 -302.774 297.486 -302.774 261.611C-302.774 227.171 -284.743 201.135 -252.574 201.135C-229.42 201.135 -214.872 213.641 -211.389 231.886H-193.358C-197.251 204.825 -217.946 185.146 -252.164 185.146C-295.808 185.146 -321.625 218.561 -321.625 261.611C-321.625 306.096 -294.578 337.87 -252.984 337.87Z" fill="black"/>
<path d="M-127.998 337.87C-96.2383 337.87 -76.9777 312.861 -76.9777 282.111C-76.9777 251.361 -96.2383 226.35 -127.998 226.35C-159.552 226.35 -179.223 251.361 -179.223 282.111C-179.223 312.861 -159.552 337.87 -127.998 337.87ZM-127.998 323.93C-150.537 323.93 -162.216 305.481 -162.216 282.111C-162.216 258.741 -150.537 240.085 -127.998 240.085C-105.459 240.085 -93.9844 258.741 -93.9844 282.111C-93.9844 305.481 -105.459 323.93 -127.998 323.93Z" fill="black"/>
<path d="M-43.8288 229.016H-60.4257V335.001H-43.8288V269.811C-43.8288 252.385 -31.5348 240.496 -14.733 240.496C0.224709 240.496 9.24029 248.286 9.24029 262.021V335.001H25.8372V260.586C25.8372 238.651 12.3138 226.556 -9.8154 226.556C-25.1829 226.556 -35.8377 232.911 -43.419 242.956H-43.8288V229.016Z" fill="black"/>
<path d="M39.0644 242.545H54.4319V315.116C54.4319 330.081 64.2671 335.616 77.7905 335.616C82.7081 335.616 87.2159 335 91.109 334.18V319.831H90.4943C88.6502 320.446 84.962 321.266 81.6836 321.266C74.9219 321.266 71.0288 318.806 71.0288 311.426V242.545H91.5188V229.016H71.0288V195.601H54.4319V229.016H39.0644V242.545Z" fill="black"/>
<path d="M191.846 336.025C196.149 336.025 198.813 335.205 200.862 334.385V322.29H200.247C191.027 324.34 188.978 319.626 188.978 311.016V260.586C188.978 235.371 172.381 226.966 149.842 226.966C121.77 226.966 108.247 242.341 107.632 262.84H123.614C124.229 246.851 132.835 239.471 150.047 239.471C165.209 239.471 173.815 246.236 173.815 258.126C173.815 269.606 163.365 271.041 148.407 273.296C121.975 277.396 102.305 282.521 102.305 307.531C102.305 327.621 118.082 337.051 138.162 337.051C156.194 337.051 167.053 328.441 173.405 320.241H173.61C175.249 331.106 180.986 336.025 191.846 336.025ZM141.851 324.34C130.991 324.34 119.926 321.266 119.926 307.12C119.926 291.54 133.245 288.671 149.842 285.596C158.857 283.956 168.488 281.29 174.02 277.805V295.846C174.02 308.146 163.98 324.34 141.851 324.34Z" fill="black"/>
<path d="M258.391 337.87C284.823 337.87 301.42 323.111 303.673 297.691H287.281C285.847 314.091 275.602 323.93 258.391 323.93C235.852 323.93 224.172 305.481 224.172 282.111C224.172 258.741 235.852 240.085 258.391 240.085C274.373 240.085 284.413 248.901 286.872 263.251H303.673C299.985 240.701 283.388 226.35 258.391 226.35C226.836 226.35 207.166 251.361 207.166 282.111C207.166 312.861 226.836 337.87 258.391 337.87Z" fill="black"/>
<path d="M312.598 242.545H327.965V315.116C327.965 330.081 337.8 335.616 351.324 335.616C356.241 335.616 360.749 335 364.642 334.18V319.831H364.028C362.184 320.446 358.495 321.266 355.217 321.266C348.455 321.266 344.562 318.806 344.562 311.426V242.545H365.052V229.016H344.562V195.601H327.965V229.016H312.598V242.545Z" fill="black"/>
</g>
</svg>
