<svg width="1025" height="89" viewBox="0 0 1025 89" fill="none" xmlns="http://www.w3.org/2000/svg">
<path d="M874.408 0.0493855H854.009C848.127 0.0411559 842.32 1.36952 837.027 3.93416H891.537C886.192 1.36623 880.337 0.038282 874.408 0.0493855V0.0493855Z" fill="white"/>
<path d="M105.468 88.9998V46.7126H137.061V3.93408H58.3137V88.9998H105.468Z" fill="white"/>
<path d="M197.566 88.9998L190.043 3.93408H146.297L156.592 88.9998H197.566Z" fill="white"/>
<path d="M243.424 88.9998L253.719 3.93408H209.973L202.066 88.9998H243.424Z" fill="white"/>
<path d="M309.618 88.9997V52.056H313.987C314.743 52.1079 315.456 52.432 315.992 52.9683C316.528 53.5045 316.852 54.2168 316.904 54.9734V88.9997H362.6V35.5342C362.609 31.3818 361.798 27.2685 360.213 23.4305C358.628 19.5925 356.301 16.1053 353.365 13.1691C350.429 10.2329 346.942 7.90562 343.104 6.32079C339.266 4.73595 335.152 3.9248 331 3.93391H262.464V88.9997H309.618Z" fill="white"/>
<path d="M417.033 88.9998V46.7126H448.633V3.93408H369.886V88.9998H417.033Z" fill="white"/>
<path d="M503.067 89V38.9355H510.353V89H556.049V33.1007C556.026 25.3701 552.946 17.9624 547.479 12.496C542.013 7.02965 534.605 3.9488 526.875 3.92651H455.912V88.9923L503.067 89Z" fill="white"/>
<path d="M611.448 3.93408H564.301V88.9998H611.448V3.93408Z" fill="white"/>
<path d="M665.896 88.9998V46.7126H697.489V3.93408H618.742V88.9998H665.896Z" fill="white"/>
<path d="M807.329 3.93408H766.501V88.9998H807.329V3.93408Z" fill="white"/>
<path d="M761.112 88.9998L755.323 3.93408H704.775V88.9998H761.112Z" fill="white"/>
<path d="M814.624 39.9104V88.9998H860.803V49.6301C860.803 47.68 861.771 46.7126 863.721 46.7126H864.688C865.076 46.6964 865.462 46.7607 865.824 46.9015C866.185 47.0424 866.513 47.2567 866.787 47.5309C867.062 47.8052 867.276 48.1333 867.417 48.4946C867.558 48.856 867.622 49.2426 867.606 49.6301V88.9998H914.269V39.9104C914.239 32.3776 912.085 25.006 908.054 18.6422C904.024 12.2784 898.28 7.18055 891.482 3.93408H836.973C830.248 7.23078 824.586 12.3526 820.634 18.7143C816.682 25.0761 814.599 32.4212 814.624 39.9104V39.9104Z" fill="white"/>
<path d="M968.701 88.9998V46.7126H1000.3V3.93408H921.554V88.9998H968.701Z" fill="white"/>
</svg>
