<svg width="1025" height="86" viewBox="0 0 1025 86" fill="none" xmlns="http://www.w3.org/2000/svg">
<path d="M105.468 83.5661H129.767V40.3039H105.468V0.934082H58.3137V85.9998H105.468V83.5661Z" fill="white"/>
<path d="M162.634 85.9998H237.328L235.247 68.4953L243.424 0.934082H202.066L199.762 25.7245L197.567 0.934082H156.592L164.769 68.4953L162.634 85.9998Z" fill="white"/>
<path d="M316.851 85.9998H362.6V0.934082H316.904V85.5085C316.902 85.6736 316.884 85.8381 316.851 85.9998V85.9998Z" fill="white"/>
<path d="M309.611 0.934082H262.464V85.9998H309.611V0.934082Z" fill="white"/>
<path d="M417.033 85.9998V83.5661H441.339V40.3039H417.033V0.934082H369.886V85.9998H417.033Z" fill="white"/>
<path d="M551.266 85.9998L551.181 83.5661C554.324 77.9131 555.997 71.5618 556.049 65.0942V0.934082H510.353V61.2095H503.067V0.934082H455.912V85.9998H551.266Z" fill="white"/>
<path d="M611.448 0.934082H564.301V85.9998H611.448V0.934082Z" fill="white"/>
<path d="M665.896 85.9998V83.5661H690.195V40.3039H665.896V0.934082H618.742V85.9998H665.896Z" fill="white"/>
<path d="M745.603 85.9998V71.9041L746.532 85.9998H807.33V0.934082H766.501V80.165L761.112 0.934082H704.775V85.9998H745.603Z" fill="white"/>
<path d="M914.269 0.934082H867.605V62.1768H914.269V0.934082Z" fill="white"/>
<path d="M860.803 0.934082H814.624V85.9998H860.803V0.934082Z" fill="white"/>
<path d="M921.554 85.9998H968.701V83.5661H993.008V40.3039H968.701V0.934082H921.554V85.9998Z" fill="white"/>
</svg>
