<svg width="1025" height="86" viewBox="0 0 1025 86" fill="none" xmlns="http://www.w3.org/2000/svg">
<path d="M105.461 0H58.3137V85.0658H105.461V0Z" fill="white"/>
<path d="M162.634 0L152.277 85.0658H196.53L199.762 45.6883L203.148 85.0658H247.47L237.328 0H162.634Z" fill="white"/>
<path d="M323.223 46.6633C344.612 46.6633 362.6 28.6751 362.6 6.80219V0H316.851C316.694 0.657412 316.332 1.2478 315.817 1.68544C315.302 2.12309 314.661 2.38521 313.987 2.43374H309.619V0H262.464V85.0658H309.619V45.6883C313.987 46.1797 318.363 46.1797 323.223 46.6633Z" fill="white"/>
<path d="M417.033 0H369.886V85.0658H417.033V0Z" fill="white"/>
<path d="M455.912 0V85.0658H503.067V17.9882H505.009L507.151 85.0658H554.145L551.266 0H455.912Z" fill="white"/>
<path d="M611.448 0H564.301V85.0658H611.448V0Z" fill="white"/>
<path d="M665.889 0H618.742V85.0658H665.889V0Z" fill="white"/>
<path d="M746.533 0L752.145 85.0658H807.33V0H746.533Z" fill="white"/>
<path d="M745.604 0H704.775V85.0658H745.604V0Z" fill="white"/>
<path d="M914.269 11.178H867.605V85.0578H914.269V11.178Z" fill="white"/>
<path d="M860.803 0H814.624V85.0658H860.803V0Z" fill="white"/>
<path d="M968.702 0H921.555V85.0658H968.702V0Z" fill="white"/>
</svg>
