<svg width="1025" height="89" viewBox="0 0 1025 89" fill="none" xmlns="http://www.w3.org/2000/svg">
<path d="M854.009 88.9998H874.423C880.326 89.0027 886.155 87.6749 891.475 85.115H837.049C842.335 87.6788 848.134 89.0072 854.009 88.9998V88.9998Z" fill="white"/>
<path d="M105.468 42.3365V0.0493164H58.3137V85.1151H137.061V42.3365H105.468Z" fill="white"/>
<path d="M152.277 0.0493164L141.921 85.1151H189.551L196.53 0.0493164H152.277Z" fill="white"/>
<path d="M203.148 0.0493164L210.457 85.1151H257.604L247.47 0.0493164H203.148Z" fill="white"/>
<path d="M309.611 0.0493164H262.464V85.1151H309.611V0.0493164Z" fill="white"/>
<path d="M417.033 42.3365V0.0493164H369.886V85.1151H448.633V42.3365H417.033Z" fill="white"/>
<path d="M507.151 0.0493164L509.869 85.1151H557.016L554.144 0.0493164H507.151Z" fill="white"/>
<path d="M503.059 0.0493164H455.912V85.1151H503.059V0.0493164Z" fill="white"/>
<path d="M611.448 0.0493164H564.301V85.1151H611.448V0.0493164Z" fill="white"/>
<path d="M665.896 42.3365V0.0493164H618.742V85.1151H697.489V42.3365H665.896Z" fill="white"/>
<path d="M752.145 0.0493164L757.757 85.1151H807.33V0.0493164H752.145Z" fill="white"/>
<path d="M745.603 0.0493164H704.775V85.1151H745.603V0.0493164Z" fill="white"/>
<path d="M914.269 48.655V0.0493164H867.605V38.9354C867.605 40.8778 866.638 41.8528 864.688 41.8528H863.721C861.771 41.8528 860.803 40.8778 860.803 38.9354V0.0493164H814.623V48.655C814.56 56.2232 816.628 63.6565 820.591 70.1043C824.554 76.5522 830.253 81.7542 837.034 85.1151H891.459C898.309 81.8032 904.085 76.6238 908.12 70.1733C912.155 63.7229 914.287 56.2638 914.269 48.655V48.655Z" fill="white"/>
<path d="M968.701 42.3365V0.0493164H921.554V85.1151H1000.3V42.3365H968.701Z" fill="white"/>
</svg>
