<svg width="686" height="435" viewBox="0 0 686 435" fill="none" xmlns="http://www.w3.org/2000/svg">
<path d="M105.665 28.874L104.173 66.9729L105.307 77.0058L105.325 77.1366L105.115 77.2064L62.3228 90.6156L68.7002 140.693L52.0194 131.192L46.6191 83.1477L46.6017 82.9993L46.8285 82.9383L67.4788 77.1454L44.3247 81.9088L44.9441 127.162L29.4934 118.35L29.633 74.8945V74.7898L29.9296 74.7287L78.9512 65.83L79.1868 56.7044L74.5629 18.1955L74.5455 18.0908L74.8334 18.021L111.624 9.94238L127.022 14.732L88.8271 23.02L90.2317 37.4064L90.4149 23.6744V23.5958L90.7901 23.5435L134.298 16.9916L150.891 22.1563L105.665 28.874Z" stroke="#121212" stroke-miterlimit="1"/>
<path d="M74.563 18.1955L74.3711 18.1257L74.5456 18.0908" stroke="#121212" stroke-miterlimit="1"/>
<path d="M90.4151 23.6742L90.2581 23.6219L90.4151 23.5957" stroke="#121212" stroke-miterlimit="1"/>
<path d="M113.307 31.3343L154.311 23.2207L182.482 31.945C183.967 32.3504 185.376 32.9957 186.652 33.8556C187.525 34.5361 187.97 35.2427 187.882 35.9407C187.795 36.6386 187.202 37.3278 186.138 37.9647C184.613 38.7576 182.982 39.3276 181.296 39.6572L154.521 45.7642L155.611 98.4936V98.6158L155.35 98.6856L152.13 99.6365C148.934 100.548 145.665 101.178 142.359 101.521C138.813 101.905 135.246 102.045 131.681 101.94C128.286 101.85 124.903 101.503 121.561 100.902C118.792 100.443 116.088 99.6517 113.508 98.546C113.081 98.293 112.636 98.0574 112.226 97.8306L110.943 97.1675L109.704 96.5394L108.544 95.8851L85.9481 102.088L88.3298 151.86L70.4713 141.705L67.854 93.451V93.3201L68.1157 93.2503L114.808 81.1672L113.002 31.4913" stroke="#121212" stroke-miterlimit="1"/>
<path d="M131.838 37.9212L133.329 88.9843V89.0977L133.076 89.1675L132.204 89.403L133.949 90.1708C134.111 90.2293 134.277 90.276 134.446 90.3103C134.638 90.3103 134.856 90.3627 135.083 90.3801C135.31 90.3976 135.537 90.3801 135.764 90.3801C135.933 90.3722 136.102 90.3548 136.27 90.3278V90.258L134.83 39.064V38.9593L135.162 38.8896L151.921 35.3213C152.069 35.2948 152.213 35.2478 152.348 35.1817C152.429 35.1393 152.493 35.072 152.532 34.9898C152.541 34.954 152.54 34.9163 152.529 34.8809C152.519 34.8455 152.498 34.8137 152.471 34.7892C152.375 34.7113 152.265 34.6521 152.148 34.6147L150.324 34.0127L131.838 37.9212Z" stroke="#121212" stroke-miterlimit="1"/>
<path d="M134.865 39.064L134.69 39.0029L134.865 38.968" stroke="#121212" stroke-miterlimit="1"/>
<path d="M112.976 31.4913L112.592 31.4651L112.976 31.3953L113.307 31.3342" stroke="#121212" stroke-miterlimit="1"/>
<path d="M237.07 48.9486L216.472 54.2704L200.969 49.1842L179.577 54.4362L179.865 80.0245L191.59 84.5262L191.782 112.714L180.17 107.776L180.188 108.972V109.094L179.935 109.172L131.995 124.466L132.797 151.092L147.637 158.927L148.3 186.059L112.88 165.871L110.882 114.363L110.873 114.224L111.118 114.145L158.787 99.9681L157.749 46.9857L157.74 46.8897L158.08 46.8112L199.599 37.3018L237.07 48.9486Z" stroke="#121212" stroke-miterlimit="1"/>
<path d="M157.749 46.9856L157.574 46.9245L157.74 46.8896" stroke="#121212" stroke-miterlimit="1"/>
<path d="M227.447 71.1083L227.272 71.0472L227.447 70.9949L227.787 70.8989" stroke="#121212" stroke-miterlimit="1"/>
<path d="M198.718 61.1713L198.552 61.1103L198.718 61.0667" stroke="#121212" stroke-miterlimit="1"/>
<path d="M329.146 77.5815L287.705 91.8457L285.812 154.137V154.276L285.551 154.399L237.305 175.59L236.616 236.389L208.62 220.433L208.611 161.832V161.657L208.864 161.553L257.24 142.062L258.392 81.8215L258.401 81.7081L258.732 81.5947L300.164 68.5693L329.146 77.5815Z" stroke="#121212" stroke-miterlimit="1"/>
<path d="M258.392 81.8217L258.218 81.7606L258.401 81.7083" stroke="#121212" stroke-miterlimit="1"/>
<path d="M387.93 95.8589L368.291 103.999L345.486 96.5307L324.574 104.601L323.196 135.092L340.566 141.757L338.83 175.285L321.721 168.009L321.66 169.466L321.652 169.605L321.399 169.727L273.528 193.178L272.7 224.934L295.112 236.764L293.969 269.07L241.144 238.972L241.947 178.024L241.955 177.85L242.217 177.736L290.427 156.248L292.451 93.6081V93.4859L292.792 93.3638L333.822 79.0386L387.93 95.8589Z" stroke="#121212" stroke-miterlimit="1"/>
<path d="M292.451 93.608L292.277 93.5469L292.451 93.4858" stroke="#121212" stroke-miterlimit="1"/>
<path d="M476.498 123.41L439.01 144.191L432.415 216.786L432.406 216.952L432.162 217.117L387.075 248.307L381.875 319.165L339.876 295.226L338.987 225.161L338.978 224.917L339.179 224.777L381.273 195.132L381.308 183.747L380.558 194.635L380.549 194.792L380.305 194.932L333.604 222.343L330.184 289.712L299.248 272.08L301.682 207.041L301.69 206.858L301.952 206.718L349.351 181.444L353.111 114.599V114.476L353.451 114.337L393.295 97.5339L432.432 109.704L398.242 130.058L397.779 197.523L402.787 131.794L402.796 131.663L403.11 131.506L441.558 112.54L476.498 123.41Z" stroke="#121212" stroke-miterlimit="1"/>
<path d="M402.787 131.794L402.63 131.742L402.796 131.663" stroke="#121212" stroke-miterlimit="1"/>
<path d="M353.111 114.599L352.945 114.546L353.111 114.477" stroke="#121212" stroke-miterlimit="1"/>
<path d="M498.178 164.816L498.047 164.772L498.196 164.667" stroke="#121212" stroke-miterlimit="1"/>
<path d="M445.78 146.678L445.632 146.625L445.789 146.538" stroke="#121212" stroke-miterlimit="1"/>
<path d="M616.479 205.601L609.945 245.244L642.006 257.554L634.233 300.984L602.948 287.679L602.643 289.538L602.616 289.721L602.424 289.956L566.454 335.392L560.155 376.649L603.183 399.359L595.951 441.165L497.027 384.789L506.833 306.689L506.859 306.463L507.086 306.236L546.703 265.825L557.948 185.501L557.966 185.352L558.236 185.126L589.835 158.647L684.86 188.205L672.672 203.717L631.153 190.116L616.479 205.601Z" stroke="#121212" stroke-miterlimit="1"/>
<path d="M557.948 185.501L557.835 185.466L557.966 185.352" stroke="#121212" stroke-miterlimit="1"/>
<path d="M60.2637 57.856L60.2725 58.0217L60.0107 57.9083" stroke="#121212" stroke-miterlimit="1"/>
<path d="M105.325 77.1367L105.342 77.3025L105.115 77.2065" stroke="#121212" stroke-miterlimit="1"/>
<path d="M74.5455 18.0907L74.5281 17.9163L74.8334 18.021" stroke="#121212" stroke-miterlimit="1"/>
<path d="M90.415 23.5958V23.4126L90.7902 23.5435" stroke="#121212" stroke-miterlimit="1"/>
<path d="M155.594 98.6157V98.7989L155.332 98.6855" stroke="#121212" stroke-miterlimit="1"/>
<path d="M134.865 38.9681L134.856 38.7761L135.196 38.8983" stroke="#121212" stroke-miterlimit="1"/>
<path d="M133.329 89.0977L133.338 89.2809L133.076 89.1675" stroke="#121212" stroke-miterlimit="1"/>
<path d="M157.74 46.8896V46.689L158.08 46.8111" stroke="#121212" stroke-miterlimit="1"/>
<path d="M249.711 138.852V139.061L249.467 138.957" stroke="#121212" stroke-miterlimit="1"/>
<path d="M198.718 61.0667V60.8486L199.075 60.9708" stroke="#121212" stroke-miterlimit="1"/>
<path d="M227.447 71.1082V70.9948V70.7854L227.787 70.8988" stroke="#121212" stroke-miterlimit="1"/>
<path d="M285.812 154.276L285.803 154.503L285.55 154.399" stroke="#121212" stroke-miterlimit="1"/>
<path d="M258.401 81.708V81.4812L258.732 81.5946" stroke="#121212" stroke-miterlimit="1"/>
<path d="M321.398 169.727L321.643 169.832L321.651 169.605" stroke="#121212" stroke-miterlimit="1"/>
<path d="M292.451 93.4858L292.46 93.2502L292.792 93.3637" stroke="#121212" stroke-miterlimit="1"/>
<path d="M432.162 217.117L432.38 217.213L432.406 216.952" stroke="#121212" stroke-miterlimit="1"/>
<path d="M380.305 194.932L380.532 195.028L380.549 194.792" stroke="#121212" stroke-miterlimit="1"/>
<path d="M353.111 114.476L353.129 114.223L353.452 114.337" stroke="#121212" stroke-miterlimit="1"/>
<path d="M402.796 131.663L402.813 131.401L403.11 131.506" stroke="#121212" stroke-miterlimit="1"/>
<path d="M571.13 162.722C571.037 163.521 570.778 164.291 570.369 164.984C569.961 165.676 569.412 166.276 568.757 166.744L549.459 182.447L541.52 240.638L491.74 220.424L498.143 164.789V164.641L498.44 164.44L515.016 153.265C515.084 153.227 515.143 153.174 515.188 153.111C515.234 153.048 515.264 152.975 515.278 152.898C515.28 152.816 515.266 152.734 515.236 152.658C515.206 152.581 515.161 152.512 515.103 152.453C514.917 152.252 514.695 152.086 514.449 151.965C514.067 151.764 513.667 151.601 513.254 151.476L512.268 151.153C511.822 151.001 511.368 150.876 510.907 150.778C510.531 150.695 510.149 150.646 509.764 150.63C509.451 150.611 509.137 150.635 508.831 150.7C508.576 150.751 508.334 150.849 508.115 150.988L491.138 162.233L482.614 238.239V238.405L482.379 238.597L439.359 273.686L436.07 308.016C436.025 308.421 436.052 308.832 436.149 309.228C436.246 309.619 436.408 309.99 436.629 310.327C436.874 310.689 437.167 311.015 437.501 311.296C437.901 311.629 438.334 311.921 438.792 312.168L439.787 312.692C440.206 312.92 440.651 313.099 441.113 313.224C441.436 313.307 441.775 313.307 442.099 313.224C442.368 313.143 442.596 312.962 442.736 312.718C442.914 312.402 443.018 312.05 443.041 311.688L446.435 277.359V277.149L446.661 276.948L484.263 245.585L533.782 267.081L498.239 302.292L492.76 347.266C492.405 350.63 491.318 353.876 489.576 356.775C487.985 359.357 485.802 361.522 483.207 363.092C480.507 364.69 477.508 365.72 474.396 366.119C470.882 366.579 467.318 366.494 463.831 365.866C462.361 365.613 460.906 365.287 459.469 364.889C457.986 364.488 456.482 363.999 454.958 363.423C453.434 362.848 451.899 362.199 450.352 361.478C448.811 360.745 447.258 359.931 445.693 359.035L425.235 347.301C423.743 346.428 422.286 345.556 420.873 344.57C419.459 343.584 418.081 342.59 416.737 341.534C415.394 340.479 414.12 339.379 412.837 338.236C411.555 337.094 410.369 335.924 409.199 334.747C406.192 331.651 403.451 328.307 401.007 324.749C398.689 321.377 396.68 317.803 395.005 314.07C393.439 310.592 392.248 306.957 391.454 303.226C390.717 299.788 390.461 296.265 390.695 292.757L393.836 251.831V251.631L394.098 251.447L438.932 219.77L445.772 146.704V146.564L446.086 146.381L467.896 134.01C469.906 132.937 472.06 132.158 474.291 131.698C477.069 131.103 479.89 130.739 482.728 130.608C486.037 130.421 489.355 130.421 492.664 130.608C496.154 130.817 499.853 131.21 503.596 131.794C505.053 132.012 506.51 132.265 507.958 132.545C509.406 132.824 510.907 133.138 512.381 133.478C513.856 133.818 515.348 134.185 516.831 134.577C518.314 134.97 519.797 135.406 521.271 135.86L541.468 142.141C543.003 142.612 544.487 143.11 545.926 143.616C547.366 144.122 548.761 144.654 550.105 145.195C551.449 145.736 552.722 146.294 553.979 146.861C555.235 147.428 556.404 148.004 557.529 148.606C560.162 149.951 562.67 151.527 565.023 153.317C566.842 154.662 568.436 156.287 569.743 158.133C570.716 159.459 571.205 161.079 571.13 162.722V162.722Z" stroke="#121212" stroke-miterlimit="1"/>
<path d="M498.196 164.667L498.23 164.379L498.492 164.466" stroke="#121212" stroke-miterlimit="1"/>
<path d="M482.597 238.405L482.562 238.684L482.361 238.597" stroke="#121212" stroke-miterlimit="1"/>
<path d="M445.789 146.538L445.815 146.259L446.103 146.355" stroke="#121212" stroke-miterlimit="1"/>
<path d="M602.424 289.956L602.564 290.017L602.616 289.721" stroke="#121212" stroke-miterlimit="1"/>
<path d="M557.965 185.352L558.009 185.047L558.236 185.125" stroke="#121212" stroke-miterlimit="1"/>
<path d="M108.465 8.95653L88.5131 12.3415L78.0876 8.93035L57.6815 12.263L58.8855 33.5502L66.7286 36.5688L67.9936 60.0458L60.2028 56.7306L60.2552 57.7513L60.2639 57.856L60.0109 57.9084L14.9675 67.6534L16.6077 89.7693L26.3701 94.9254L27.9667 117.486L4.42863 104.068L1.00872 60.988L1 60.8659L1.23556 60.8135L45.7729 51.6618L43.016 7.26402L43.0073 7.1855L43.3388 7.13315L82.8772 1L108.465 8.95653Z" stroke="#121212" stroke-miterlimit="1"/>
<path d="M46.6017 82.9994L46.5842 82.8162L46.8285 82.9383" stroke="#121212" stroke-miterlimit="1"/>
<path d="M67.8278 93.3203L67.8191 93.1196L68.0895 93.2505" stroke="#121212" stroke-miterlimit="1"/>
<path d="M252.704 63.7885L248.725 62.4973L223.469 69.6163L223.233 110.978L227.15 112.566L227.447 71.1082L252.704 63.7885Z" stroke="#121212" stroke-miterlimit="1"/>
<path d="M253.48 80.0068L252.695 125.643C252.681 126.791 252.594 127.936 252.433 129.072C252.291 130.116 252.085 131.151 251.814 132.169C251.556 133.112 251.242 134.039 250.872 134.943C250.534 135.776 250.138 136.584 249.685 137.36V138.712V138.852L249.441 138.957L202.696 158.796L204.441 218.077L178.818 203.473L176.698 146.346V146.172L176.933 146.084L214.526 131.436L213.497 130.983L174.56 145.133L175.328 201.457L151.773 188.039L150.516 133.626V133.469L150.769 133.382L198.927 117.137L198.7 61.1711V61.0664L199.058 60.9705L240.743 50.0913L278.588 61.8603C280.456 62.4023 282.247 63.1792 283.919 64.1723C284.978 64.7343 285.82 65.6339 286.309 66.7285C286.45 67.17 286.456 67.6436 286.325 68.0883C286.195 68.533 285.934 68.9285 285.577 69.2236C284.393 70.2319 282.993 70.9543 281.485 71.3349L253.48 80.0068ZM253.48 80.0068V79.78" stroke="#121212" stroke-miterlimit="1"/>
<path d="M176.733 146.172L176.724 145.962L176.968 146.084" stroke="#121212" stroke-miterlimit="1"/>
<path d="M150.534 133.469L150.525 133.251L150.787 133.382" stroke="#121212" stroke-miterlimit="1"/>
<path d="M208.611 161.657V161.43L208.864 161.553" stroke="#121212" stroke-miterlimit="1"/>
<path d="M241.955 177.85V177.605L242.217 177.736" stroke="#121212" stroke-miterlimit="1"/>
<path d="M338.978 224.917V224.681L339.178 224.777" stroke="#121212" stroke-miterlimit="1"/>
<path d="M301.69 206.858L301.699 206.596L301.952 206.718" stroke="#121212" stroke-miterlimit="1"/>
<path d="M393.845 251.604L393.871 251.308L394.106 251.421" stroke="#121212" stroke-miterlimit="1"/>
<path d="M446.452 277.132L446.478 276.835L446.679 276.931" stroke="#121212" stroke-miterlimit="1"/>
<path d="M506.859 306.462L506.902 306.148L507.086 306.236" stroke="#121212" stroke-miterlimit="1"/>
<path d="M60.2551 57.7515L60.4209 57.8213L60.2639 57.8562" stroke="#121212" stroke-miterlimit="1"/>
<path d="M46.6191 83.1476L46.4185 83.0516L46.6017 82.9993" stroke="#121212" stroke-miterlimit="1"/>
<path d="M105.307 77.0059L105.499 77.0844L105.325 77.1367" stroke="#121212" stroke-miterlimit="1"/>
<path d="M67.8365 93.4509L67.6533 93.3637L67.8278 93.3201" stroke="#121212" stroke-miterlimit="1"/>
<path d="M133.33 88.9844L133.495 89.0542L133.33 89.0978" stroke="#121212" stroke-miterlimit="1"/>
<path d="M155.585 98.4937L155.76 98.5634L155.594 98.6158" stroke="#121212" stroke-miterlimit="1"/>
<path d="M176.741 146.346L176.541 146.25L176.733 146.172" stroke="#121212" stroke-miterlimit="1"/>
<path d="M150.534 133.626L150.342 133.53L150.534 133.469" stroke="#121212" stroke-miterlimit="1"/>
<path d="M249.703 138.713L249.877 138.782L249.711 138.852" stroke="#121212" stroke-miterlimit="1"/>
<path d="M208.611 161.832L208.419 161.736L208.611 161.657" stroke="#121212" stroke-miterlimit="1"/>
<path d="M285.812 154.137L285.978 154.207L285.812 154.277" stroke="#121212" stroke-miterlimit="1"/>
<path d="M241.947 178.024L241.763 177.937L241.955 177.849" stroke="#121212" stroke-miterlimit="1"/>
<path d="M321.66 169.466L321.808 169.527L321.651 169.605" stroke="#121212" stroke-miterlimit="1"/>
<path d="M338.986 225.161L338.777 225.056L338.978 224.917" stroke="#121212" stroke-miterlimit="1"/>
<path d="M432.415 216.786L432.554 216.847L432.406 216.952" stroke="#121212" stroke-miterlimit="1"/>
<path d="M301.682 207.041L301.507 206.954L301.69 206.858" stroke="#121212" stroke-miterlimit="1"/>
<path d="M380.558 194.635L380.706 194.696L380.549 194.792" stroke="#121212" stroke-miterlimit="1"/>
<path d="M446.426 277.341L446.278 277.271L446.452 277.132" stroke="#121212" stroke-miterlimit="1"/>
<path d="M393.836 251.805L393.67 251.727L393.845 251.604" stroke="#121212" stroke-miterlimit="1"/>
<path d="M482.614 238.239L482.736 238.291L482.597 238.405" stroke="#121212" stroke-miterlimit="1"/>
<path d="M506.832 306.689L506.702 306.628L506.859 306.462" stroke="#121212" stroke-miterlimit="1"/>
<path d="M602.642 289.537L602.73 289.572L602.616 289.721" stroke="#121212" stroke-miterlimit="1"/>
</svg>
