<svg width="337" height="337" viewBox="0 0 337 337" fill="none" xmlns="http://www.w3.org/2000/svg">
<mask id="mask0" mask-type="alpha" maskUnits="userSpaceOnUse" x="0" y="0" width="337" height="337">
<rect x="0.5" y="0.503906" width="335.754" height="335.754" fill="white"/>
<rect x="1" y="1.00391" width="334.754" height="334.754" stroke="#121212" stroke-opacity="0.3"/>
</mask>
<g mask="url(#mask0)">
<path d="M101.465 128.873L741 3.14494L735.186 -26.9277L95.6514 98.7377L101.465 128.873Z" fill="#121212"/>
<path d="M698.142 371.992L340.31 14.8163L156.879 354.268L123.111 336.051L330.786 -48.2334L725.044 344.697L698.142 371.992Z" fill="#121212"/>
<path d="M434.682 63.9102L406.977 37.4175L432.827 10.4316L298.006 -82.1352L376.363 -148.086L403.451 -120.977L359.294 -89.175L493.187 2.83622L434.682 63.9102Z" fill="#121212"/>
<path d="M332.328 315.92C260.401 315.932 190.084 294.645 130.274 254.751C70.4632 214.857 23.8442 158.149 -3.68701 91.7987C-31.2182 25.4468 -38.4248 -47.5668 -24.3954 -118.007C-10.3659 -188.448 24.2693 -253.153 75.1298 -303.937C125.99 -354.722 190.791 -389.305 261.338 -403.314C331.884 -417.322 405.006 -410.127 471.457 -382.636C537.907 -355.146 594.699 -308.597 634.654 -248.875C674.607 -189.153 695.925 -118.943 695.914 -47.1231C695.799 49.1272 657.455 141.401 589.295 209.461C521.135 277.519 428.721 315.805 332.328 315.92ZM332.328 -370.766C268.22 -370.779 205.546 -351.808 152.235 -316.253C98.9253 -280.698 57.3714 -230.156 32.8295 -171.018C8.28748 -111.881 1.85989 -46.8058 14.3594 15.9792C26.859 78.7643 57.7243 136.438 103.052 181.706C148.379 226.974 206.133 257.805 269.01 270.298C331.886 282.792 397.061 276.385 456.29 251.891C515.52 227.397 566.145 185.915 601.764 132.692C637.382 79.4662 656.395 16.8915 656.395 -47.1231C656.296 -132.918 622.124 -215.171 561.372 -275.843C500.622 -336.515 418.251 -370.652 332.328 -370.766Z" fill="#121212"/>
</g>
</svg>
