<svg width="337" height="336" viewBox="0 0 337 336" fill="none" xmlns="http://www.w3.org/2000/svg">
<mask id="mask0" mask-type="alpha" maskUnits="userSpaceOnUse" x="0" y="0" width="337" height="336">
<rect x="0.50293" width="335.754" height="335.754" fill="white"/>
<rect x="1.00293" y="0.5" width="334.754" height="334.754" stroke="#121212" stroke-opacity="0.3"/>
</mask>
<g mask="url(#mask0)">
<path d="M-244.535 128.873L395 3.14494L389.186 -26.9277L-250.349 98.7377L-244.535 128.873Z" fill="#121212"/>
<path d="M352.142 371.992L-5.69044 14.8163L-189.121 354.268L-222.889 336.051L-15.2139 -48.2334L379.044 344.697L352.142 371.992Z" fill="#121212"/>
<path d="M88.6823 63.9102L60.9765 37.4175L86.8266 10.4316L-47.9941 -82.1352L30.3631 -148.086L57.4509 -120.977L13.2935 -89.175L147.187 2.83622L88.6823 63.9102Z" fill="#121212"/>
<path d="M-13.6721 315.92C-85.5993 315.932 -155.916 294.645 -215.726 254.751C-275.537 214.857 -322.156 158.149 -349.687 91.7987C-377.218 25.4468 -384.425 -47.5668 -370.395 -118.007C-356.366 -188.448 -321.731 -253.153 -270.87 -303.937C-220.01 -354.722 -155.209 -389.305 -84.6624 -403.314C-14.1159 -417.322 59.0062 -410.127 125.457 -382.636C191.907 -355.146 248.699 -308.597 288.654 -248.875C328.607 -189.153 349.925 -118.943 349.914 -47.1231C349.799 49.1272 311.455 141.401 243.295 209.461C175.135 277.519 82.7212 315.805 -13.6721 315.92ZM-13.6721 -370.766C-77.7804 -370.779 -140.454 -351.808 -193.765 -316.253C-247.075 -280.698 -288.629 -230.156 -313.17 -171.018C-337.713 -111.881 -344.14 -46.8058 -331.641 15.9792C-319.141 78.7643 -288.276 136.438 -242.948 181.706C-197.621 226.974 -139.867 257.805 -76.9898 270.298C-14.1143 282.792 51.0607 276.385 110.29 251.891C169.52 227.397 220.145 185.915 255.764 132.692C291.382 79.4662 310.395 16.8915 310.395 -47.1231C310.296 -132.918 276.124 -215.171 215.372 -275.843C154.622 -336.515 72.2509 -370.652 -13.6721 -370.766Z" fill="#121212"/>
</g>
</svg>
