<svg width="381" height="386" viewBox="0 0 381 386" fill="none" xmlns="http://www.w3.org/2000/svg">
<path d="M55.8545 261.913L380.841 198.023L377.887 182.741L52.9004 246.599L55.8545 261.913Z" fill="#121212"/>
<path d="M359.063 385.456L177.227 203.953L84.0148 376.449L66.8555 367.192L172.388 171.914L372.734 371.586L359.063 385.456Z" fill="#121212"/>
<path d="M213.401 182.081L194.734 176.495L202.182 154.216L220.85 159.833L213.401 182.081Z" fill="#121212"/>
<path d="M225.188 228.901L211.109 215.438L224.245 201.725L155.734 154.686L195.552 121.172L209.317 134.948L186.878 151.109L254.918 197.865L225.188 228.901Z" fill="#121212"/>
<path d="M173.165 344.89C139.006 344.895 105.612 334.786 77.2072 315.84C48.8022 296.894 26.6622 269.962 13.5873 238.452C0.512354 206.94 -2.91016 172.265 3.75259 138.812C10.4154 105.359 26.8641 74.6297 51.0184 50.5114C75.1728 26.3931 105.947 9.96896 139.451 3.31612C172.954 -3.3367 207.681 0.0807206 239.239 13.1362C270.798 26.1916 297.769 48.2985 316.744 76.6611C335.718 105.024 345.842 138.367 345.837 172.476C345.782 218.186 327.572 262.009 295.202 294.331C262.832 326.653 218.944 344.835 173.165 344.89ZM173.165 18.7734C142.719 18.7676 112.955 27.7772 87.6369 44.6628C62.3192 61.5483 42.5847 85.5511 30.9294 113.636C19.2741 141.722 16.2216 172.627 22.1577 202.444C28.094 232.261 42.7523 259.651 64.279 281.15C85.8056 302.648 113.234 317.29 143.095 323.224C172.955 329.157 203.908 326.114 232.037 314.482C260.166 302.849 284.208 283.149 301.124 257.872C318.04 232.595 327.069 202.877 327.069 172.476C327.022 131.731 310.793 92.6679 281.941 63.8537C253.09 35.0397 213.971 18.8277 173.165 18.7734Z" fill="#121212"/>
</svg>
