<svg width="337" height="336" viewBox="0 0 337 336" fill="none" xmlns="http://www.w3.org/2000/svg">
<mask id="mask0" mask-type="alpha" maskUnits="userSpaceOnUse" x="0" y="0" width="337" height="337">
<rect x="0.34375" y="0.246094" width="335.754" height="335.754" fill="white"/>
<rect x="0.84375" y="0.746094" width="334.754" height="334.754" stroke="#121212" stroke-opacity="0.3"/>
</mask>
<g mask="url(#mask0)">
<path d="M101.465 474.873L741 349.145L735.186 319.072L95.6514 444.738L101.465 474.873Z" fill="#121212"/>
<path d="M698.142 717.992L340.31 360.816L156.879 700.268L123.111 682.051L330.786 297.767L725.044 690.697L698.142 717.992Z" fill="#121212"/>
<path d="M434.682 409.91L406.977 383.417L432.827 356.432L298.006 263.865L376.363 197.914L403.451 225.023L359.294 256.825L493.187 348.836L434.682 409.91Z" fill="#121212"/>
<path d="M332.328 661.92C260.401 661.932 190.084 640.645 130.274 600.751C70.4632 560.857 23.8442 504.149 -3.68701 437.799C-31.2182 371.447 -38.4248 298.433 -24.3954 227.993C-10.3659 157.552 24.2693 92.8473 75.1298 42.0627C125.99 -8.72206 190.791 -43.3055 261.338 -57.314C331.884 -71.3225 405.006 -64.1266 471.457 -36.6364C537.907 -9.14629 594.699 37.4031 634.654 97.1246C674.607 156.847 695.925 227.057 695.914 298.877C695.799 395.127 657.455 487.401 589.295 555.461C521.135 623.519 428.721 661.805 332.328 661.92ZM332.328 -24.7665C268.22 -24.7786 205.546 -5.80766 152.235 29.7475C98.9253 65.3025 57.3714 115.844 32.8295 174.982C8.28748 234.119 1.85989 299.194 14.3594 361.979C26.859 424.764 57.7243 482.438 103.052 527.706C148.379 572.974 206.133 603.805 269.01 616.298C331.886 628.792 397.061 622.385 456.29 597.891C515.52 573.397 566.145 531.915 601.764 478.692C637.382 425.466 656.395 362.891 656.395 298.877C656.296 213.082 622.124 130.829 561.372 70.1569C500.622 9.48476 418.251 -24.6521 332.328 -24.7665Z" fill="#121212"/>
</g>
</svg>
