<svg width="336" height="337" viewBox="0 0 336 337" fill="none" xmlns="http://www.w3.org/2000/svg">
<mask id="mask0" mask-type="alpha" maskUnits="userSpaceOnUse" x="0" y="0" width="337" height="337">
<rect x="0.246094" y="0.25" width="335.754" height="335.754" fill="white"/>
<rect x="0.746094" y="0.75" width="334.754" height="334.754" stroke="#121212" stroke-opacity="0.3"/>
</mask>
<g mask="url(#mask0)">
<path d="M-243.535 474.873L396 349.145L390.186 319.072L-249.349 444.738L-243.535 474.873Z" fill="#121212"/>
<path d="M353.142 717.992L-4.69044 360.816L-188.121 700.268L-221.889 682.051L-14.2139 297.767L380.044 690.697L353.142 717.992Z" fill="#121212"/>
<path d="M66.4903 317.776L29.7559 306.783L44.4125 262.939L81.1486 273.993L66.4903 317.776Z" fill="#121212"/>
<path d="M89.6823 409.91L61.9765 383.417L87.8266 356.432L-46.9941 263.865L31.3631 197.914L58.4509 225.023L14.2935 256.825L148.187 348.836L89.6823 409.91Z" fill="#121212"/>
<path d="M-12.6721 661.92C-84.5993 661.932 -154.916 640.645 -214.726 600.751C-274.537 560.857 -321.156 504.149 -348.687 437.799C-376.218 371.447 -383.425 298.433 -369.395 227.993C-355.366 157.552 -320.731 92.8473 -269.87 42.0627C-219.01 -8.72206 -154.209 -43.3055 -83.6624 -57.314C-13.1159 -71.3225 60.0062 -64.1266 126.457 -36.6364C192.907 -9.14629 249.699 37.4031 289.654 97.1246C329.607 156.847 350.925 227.057 350.914 298.877C350.799 395.127 312.455 487.401 244.295 555.461C176.135 623.519 83.7212 661.805 -12.6721 661.92ZM-12.6721 -24.7665C-76.7804 -24.7786 -139.454 -5.80766 -192.765 29.7475C-246.075 65.3025 -287.629 115.844 -312.17 174.982C-336.713 234.119 -343.14 299.194 -330.641 361.979C-318.141 424.764 -287.276 482.438 -241.948 527.706C-196.621 572.974 -138.867 603.805 -75.9898 616.298C-13.1143 628.792 52.0607 622.385 111.29 597.891C170.52 573.397 221.145 531.915 256.764 478.692C292.382 425.466 311.395 362.891 311.395 298.877C311.296 213.082 277.124 130.829 216.372 70.1569C155.622 9.48476 73.2509 -24.6521 -12.6721 -24.7665Z" fill="#121212"/>
</g>
</svg>
