<svg width="41" height="41" viewBox="0 0 41 41" fill="none" xmlns="http://www.w3.org/2000/svg">
<path fill-rule="evenodd" clip-rule="evenodd" d="M20.8937 40.249C31.9394 40.249 40.8937 31.2947 40.8937 20.249C40.8937 9.20333 31.9394 0.249023 20.8937 0.249023C9.84797 0.249023 0.893661 9.20333 0.893661 20.249C0.893661 31.2947 9.84797 40.249 20.8937 40.249ZM19.6682 12.8382C19.3327 13.0088 19.1214 13.3533 19.1214 13.7296V26.7571C19.1214 27.1324 19.3316 27.4762 19.6657 27.6472L22.8189 29.2618V11.2363L19.6682 12.8382ZM13.5516 14.705C12.447 14.705 11.5516 15.6004 11.5516 16.705V23.7932C11.5516 24.8978 12.447 25.7932 13.5516 25.7932H15.2476V14.705H13.5516ZM30.2357 20.2491C30.2357 21.7109 29.0507 22.896 27.5889 22.896C26.127 22.896 24.942 21.7109 24.942 20.2491C24.942 18.7872 26.127 17.6022 27.5889 17.6022C29.0507 17.6022 30.2357 18.7872 30.2357 20.2491Z" fill="#121212"/>
</svg>
