<svg width="42" height="41" viewBox="0 0 42 41" fill="none" xmlns="http://www.w3.org/2000/svg">
<path fill-rule="evenodd" clip-rule="evenodd" d="M20.9406 40.249C31.9863 40.249 40.9406 31.2947 40.9406 20.249C40.9406 9.20333 31.9863 0.249023 20.9406 0.249023C9.8949 0.249023 0.940598 9.20333 0.940598 20.249C0.940598 31.2947 9.8949 40.249 20.9406 40.249ZM19.1684 13.7296C19.1684 13.3533 19.3797 13.0088 19.7151 12.8382L22.8659 11.2363V29.2618L19.7126 27.6472C19.3785 27.4762 19.1684 27.1324 19.1684 26.7571V13.7296ZM11.5985 16.705C11.5985 15.6004 12.4939 14.705 13.5985 14.705H15.2946V25.7932H13.5985C12.4939 25.7932 11.5985 24.8978 11.5985 23.7932V16.705ZM25.5925 22.5941L27.6883 20.4984L29.784 22.5941L30.4911 21.887L28.3954 19.7913L30.2827 17.904L29.5756 17.1969L27.6883 19.0842L25.8009 17.1968L25.0938 17.9039L26.9812 19.7913L24.8854 21.887L25.5925 22.5941Z" fill="#121212"/>
</svg>
